<svg width="147" height="221" viewBox="0 0 147 221" fill="none" xmlns="http://www.w3.org/2000/svg">
<path d="M99.375 93.8125C101.458 98.7292 104.021 104.75 107.062 111.875C110.146 119 113.312 126.333 116.562 133.875C119.854 141.417 123.021 148.75 126.062 155.875C129.146 163 131.75 169 133.875 173.875C134.5 175.417 135.729 176.812 137.562 178.062C138.521 178.688 139.458 179.208 140.375 179.625C141.333 180.042 142.104 180.438 142.688 180.812C143.104 181.104 143.375 181.396 143.5 181.688C143.583 181.854 143.625 182.021 143.625 182.188C143.625 182.312 143.583 182.458 143.5 182.625C143.375 182.875 143.125 183 142.75 183H121.625C121.25 183 120.875 182.875 120.5 182.625C120.083 182.333 119.833 182.021 119.75 181.688C119.667 181.562 119.625 181.438 119.625 181.312C119.625 180.938 119.875 180.542 120.375 180.125C120.75 179.75 121.208 179.354 121.75 178.938C122.292 178.521 122.688 177.958 122.938 177.25C123.062 176.917 123.125 176.542 123.125 176.125C123.125 175.417 122.958 174.646 122.625 173.812L113.375 152.438H76.9375C75.4375 156.021 73.9375 159.604 72.4375 163.188C70.9792 166.729 69.5 170.271 68 173.812C67.625 174.646 67.4167 175.396 67.375 176.062C67.3333 176.354 67.3125 176.646 67.3125 176.938C67.3125 177.354 67.375 177.75 67.5 178.125C67.625 178.667 67.8333 179.125 68.125 179.5C68.4167 179.833 68.625 180.188 68.75 180.562C68.7917 180.896 68.8125 181.125 68.8125 181.25C68.8125 181.375 68.7708 181.521 68.6875 181.688C68.3958 182.562 67.9375 183 67.3125 183H51.1875C50.7708 183 50.4792 182.875 50.3125 182.625C50.3125 182.583 50.2708 182.479 50.1875 182.312C50.1875 182.229 50.2292 182.021 50.3125 181.688C50.5625 181.146 51.2708 180.604 52.4375 180.062C53.0625 179.771 53.7292 179.458 54.4375 179.125C55.1875 178.75 55.9375 178.312 56.6875 177.812C58.2292 176.729 59.3542 175.417 60.0625 173.875L95.5 93.8125H99.375ZM111.188 147.375L94.875 109.312C92.2083 115.688 89.5417 122.042 86.875 128.375C84.25 134.708 81.625 141.042 79 147.375H111.188Z" fill="black"/>
<path d="M16.9375 74.3125L29.9375 81.8125V66.8125C29.9375 65.2708 30.5 64.5 31.625 64.5H34.875C36 64.5 36.5625 65.2708 36.5625 66.8125V81.8125L49.5625 74.3125C50.1458 73.9792 50.6667 73.8125 51.125 73.8125C51.6667 73.8125 52.0833 74.0625 52.375 74.5625L54.0625 77.4375C54.1875 77.6875 54.25 77.9375 54.25 78.1875C54.25 78.8542 53.7917 79.4583 52.875 80L39.8125 87.5L52.875 95.0625C53.7917 95.6458 54.25 96.25 54.25 96.875C54.25 97.125 54.1875 97.375 54.0625 97.625L52.375 100.5C52.0833 101 51.6667 101.25 51.125 101.25C50.6667 101.25 50.1458 101.083 49.5625 100.75L36.5625 93.25V108.25C36.5625 109.792 36 110.562 34.875 110.562H31.625C30.5 110.562 29.9375 109.792 29.9375 108.25V93.25L16.9375 100.75C16.3542 101.125 15.8333 101.312 15.375 101.312C14.8333 101.312 14.4167 101.042 14.125 100.5L12.5 97.625C12.3333 97.3333 12.25 97.0625 12.25 96.8125C12.25 96.1875 12.7083 95.6042 13.625 95.0625L26.6875 87.5L13.625 80C12.7083 79.5 12.25 78.9375 12.25 78.3125C12.25 78.0208 12.3333 77.7292 12.5 77.4375L14.125 74.5625C14.4167 74.0625 14.8333 73.8125 15.375 73.8125C15.8333 73.8125 16.3542 73.9792 16.9375 74.3125Z" fill="black"/>
</svg>
